<svg xmlns="http://www.w3.org/2000/svg" viewBox="4958.29 1476.914 49.086 49.086">
  <defs>
    <style>
      .cls-1 {
        fill: #666;
      }

      .cls-2 {
        fill: #efefef;
      }
    </style>
  </defs>
  <g id="Ico_Google_" data-name="Ico Google+" transform="translate(4958.29 1476.914)">
    <circle id="Ellipse_7" data-name="Ellipse 7" class="cls-1" cx="24.543" cy="24.543" r="24.543"/>
    <path id="G" class="cls-2" d="M19.523,46.29a10.886,10.886,0,0,1,18.046-8.144c-.884.972-1.784,1.934-2.745,2.834-1.9-1.153-4.183-2.032-6.4-1.251A6.84,6.84,0,1,0,33.029,52.6a5.984,5.984,0,0,0,3.516-4.1c-2.068-.041-4.136-.015-6.2-.073-.005-1.23-.01-2.456-.005-3.687,3.449-.005,6.9-.015,10.356.015C40.9,47.769,40.459,51,38.5,53.415c-2.684,3.454-7.642,4.468-11.675,3.113A10.823,10.823,0,0,1,19.523,46.29Z" transform="translate(-10.989 -22.229)"/>
    <path id="_" data-name="+" class="cls-2" d="M75.56,48.668h3.076c.006,1.029.015,2.063.021,3.092,1.029.01,2.063.015,3.092.021v3.082l-3.092.015c-.01,1.034-.015,2.063-.021,3.1-1.029-.005-2.058,0-3.082,0-.01-1.034-.01-2.063-.021-3.092-1.029-.011-2.063-.015-3.092-.021V51.78q1.544-.008,3.092-.021C75.539,50.731,75.549,49.7,75.56,48.668Z" transform="translate(-40.76 -30.666)"/>
  </g>
</svg>
