<svg xmlns="http://www.w3.org/2000/svg" viewBox="5016.579 1476.914 49.086 49.086">
  <defs>
    <style>
      .cls-1 {
        fill: #666;
        fill-rule: evenodd;
      }
    </style>
  </defs>
  <path id="Icon_Twitter" data-name="Icon Twitter" class="cls-1" d="M31.952,18.957a4.963,4.963,0,0,0-3.343,4.991l.052.849-.857-.1a13.931,13.931,0,0,1-8.16-4.021l-1.131-1.127-.291.832a5.009,5.009,0,0,0,1.063,5.13c.686.728.531.832-.651.4a2.036,2.036,0,0,0-.806-.191,6.228,6.228,0,0,0,.617,2.323,5.538,5.538,0,0,0,2.349,2.219l.84.4-.994.017c-.96,0-.994.017-.891.382A5.186,5.186,0,0,0,22.953,33.9l1.063.363-.925.555A9.613,9.613,0,0,1,18.5,36.1a5.037,5.037,0,0,0-1.406.139A13.1,13.1,0,0,0,20.4,37.762a14.464,14.464,0,0,0,11.246-1.283,15.07,15.07,0,0,0,5.709-6.726,17.877,17.877,0,0,0,1.166-5.2c0-.8.052-.9,1.011-1.855a11.3,11.3,0,0,0,1.2-1.334c.172-.33.154-.33-.72-.035-1.457.52-1.663.451-.942-.329a5.052,5.052,0,0,0,1.166-1.855c0-.052-.257.034-.549.191a9.476,9.476,0,0,1-1.509.589l-.925.3-.84-.573a6.967,6.967,0,0,0-1.457-.762A5.856,5.856,0,0,0,31.952,18.957ZM28.543,53.086A24.543,24.543,0,1,1,53.086,28.543,24.544,24.544,0,0,1,28.543,53.086Z" transform="translate(5012.579 1472.914)"/>
</svg>
