<svg xmlns="http://www.w3.org/2000/svg" viewBox="4370 200.861 39.292 47.711">
  <defs>
    <style>
      .cls-1 {
        fill: #666;
        fill-rule: evenodd;
      }
    </style>
  </defs>
  <path id="Icon_Lock_close" data-name="Icon Lock close" class="cls-1" d="M34.052,47.711H5.24A5.272,5.272,0,0,1,0,42.409V22.082a5.272,5.272,0,0,1,5.24-5.3H7.858V13.252C7.858,5.933,13.135,0,19.646,0S31.433,5.933,31.433,13.252V16.78h2.618a5.272,5.272,0,0,1,5.24,5.3V42.409A5.272,5.272,0,0,1,34.052,47.711ZM17.681,31.486v6.264a1.965,1.965,0,1,0,3.929,0V31.486a3.182,3.182,0,0,0-1.179-6.121H18.86a3.182,3.182,0,0,0-1.179,6.121Zm8.512-17.9c0-4.575-2.93-8.282-6.548-8.282S13.1,9.009,13.1,13.584v3.2h13.1Z" transform="translate(4370 200.861)"/>
</svg>
