<svg xmlns="http://www.w3.org/2000/svg" viewBox="4596 197 48.985 49.017">
  <defs>
    <style>
      .cls-1 {
        fill: #666;
        fill-rule: evenodd;
      }
    </style>
  </defs>
  <path id="Icon_User" data-name="Icon User" class="cls-1" d="M25.05,49.017h-1.1C.041,49.014.005,48.87.005,39.544c0-5.193,4.258-9.722,9.2-9.722,6.346,0,8.006,2.621,14.976,2.908,7.555-.134,9.019-2.954,15.617-2.954,4.938,0,9.2,4.542,9.2,9.748C48.99,48.87,48.95,49.014,25.05,49.017Zm-.144-21.649c-6.036,0-10.928-6.127-10.928-13.682S18.87,0,24.906,0,35.833,6.127,35.833,13.686,30.941,27.368,24.906,27.368Z" transform="translate(4595.995 197)"/>
</svg>
