<svg xmlns="http://www.w3.org/2000/svg" viewBox="5513.096 190 62.904 58.443">
  <defs>
    <style>
      .cls-1 {
        fill: #666;
        fill-rule: evenodd;
      }
    </style>
  </defs>
  <path id="Icon_Text_Cloud" data-name="Icon Text Cloud" class="cls-1" d="M70.452,59.809a38.677,38.677,0,0,1-5.639-.427,28.469,28.469,0,0,1-5.05,4.731C53.18,68.993,42.5,67.07,42.5,67.07a30.342,30.342,0,0,0,6.942-13.8C43.044,48.616,39,41.9,39,34.4,39,20.377,53.082,9,70.452,9S101.9,20.377,101.9,34.4,87.823,59.809,70.452,59.809ZM56.474,30.778a3.631,3.631,0,1,0,3.5,3.626A3.561,3.561,0,0,0,56.474,30.778Zm13.978,0a3.631,3.631,0,1,0,3.5,3.626A3.561,3.561,0,0,0,70.452,30.778Zm13.978,0a3.631,3.631,0,1,0,3.5,3.626A3.564,3.564,0,0,0,84.43,30.778Z" transform="translate(5474.096 181)"/>
</svg>
