<svg xmlns="http://www.w3.org/2000/svg" viewBox="5256 337.438 53.839 35.899">
  <defs>
    <style>
      .cls-1 {
        fill: #666;
        fill-rule: evenodd;
      }
    </style>
  </defs>
  <path id="Icon_Mail" data-name="Icon Mail" class="cls-1" d="M47.861,35.9H6.01A5.982,5.982,0,0,1,.033,29.915V8.976c0-2.3-.326-7.045,1.119-7.852a26.23,26.23,0,0,0,3.4,5.13L22.411,22.212a5.263,5.263,0,0,0,4.526,1.346A6.067,6.067,0,0,0,31.6,21.7L50.113,6.167a29.08,29.08,0,0,0,2.605-5.043c1.1,1.424,1.122,5.839,1.122,7.852V29.915A5.982,5.982,0,0,1,47.861,35.9ZM31.6,18.707c-1.277,1.28-2.991,2.731-4.663,2.608a5.909,5.909,0,0,1-4.526-2.094L4.553,3.263A6.129,6.129,0,0,1,3.054,0H51.66a5.85,5.85,0,0,1-1.547,3.174Z" transform="translate(5255.999 337.439)"/>
</svg>
